<?xml version="1.0" encoding="UTF-8" standalone="no"?>
<!DOCTYPE svg PUBLIC "-//W3C//DTD SVG 1.1//EN"
 "http://www.w3.org/Graphics/SVG/1.1/DTD/svg11.dtd">
<!-- Generated by graphviz version 2.43.0 (0)
 -->
<!-- Title: G Pages: 1 -->
<svg width="127pt" height="369pt"
 viewBox="0.00 0.00 126.50 369.00" xmlns="http://www.w3.org/2000/svg" xmlns:xlink="http://www.w3.org/1999/xlink">
<g id="graph0" class="graph" transform="scale(1 1) rotate(0) translate(4 365)">
<title>G</title><style>.edge>path:hover{stroke-width:8}</style>
<polygon fill="white" stroke="transparent" points="-4,4 -4,-365 122.5,-365 122.5,4 -4,4"/>
<!-- main -->
<g id="node1" class="node">
<title>main</title><style>.edge>path:hover{stroke-width:8}</style>
<ellipse fill="#9eb34c" stroke="black" cx="63.5" cy="-18" rx="27" ry="18"/>
<text text-anchor="middle" x="63.5" y="-15.5" font-family="Helvetica,sans-Serif" font-size="10.00" fill="#000000">main</text>
</g>
<!-- controller -->
<g id="node2" class="node">
<title>controller</title><style>.edge>path:hover{stroke-width:8}</style>
<polygon fill="#a44646" stroke="black" points="95,-180 92,-184 71,-184 68,-180 32,-180 32,-144 95,-144 95,-180"/>
<text text-anchor="middle" x="63.5" y="-159.5" font-family="Helvetica,sans-Serif" font-size="10.00" fill="#ffffff">controller</text>
</g>
<!-- view -->
<g id="node5" class="node">
<title>view</title><style>.edge>path:hover{stroke-width:8}</style>
<polygon fill="#9e4cb3" stroke="black" points="90.5,-108 87.5,-112 66.5,-112 63.5,-108 36.5,-108 36.5,-72 90.5,-72 90.5,-108"/>
<text text-anchor="middle" x="63.5" y="-87.5" font-family="Helvetica,sans-Serif" font-size="10.00" fill="#ffffff">view</text>
</g>
<!-- controller&#45;&gt;view -->
<g id="edge1" class="edge">
<title>controller&#45;&gt;view</title><style>.edge>path:hover{stroke-width:8}</style>
<path fill="none" stroke="black" d="M63.5,-143.7C63.5,-135.98 63.5,-126.71 63.5,-118.11"/>
<polygon fill="#a44646" stroke="black" points="67,-118.1 63.5,-108.1 60,-118.1 67,-118.1"/>
</g>
<!-- models -->
<g id="node3" class="node">
<title>models</title><style>.edge>path:hover{stroke-width:8}</style>
<polygon fill="#49ac71" stroke="black" points="118.5,-252 115.5,-256 94.5,-256 91.5,-252 64.5,-252 64.5,-216 118.5,-216 118.5,-252"/>
<text text-anchor="middle" x="91.5" y="-231.5" font-family="Helvetica,sans-Serif" font-size="10.00" fill="#000000">models</text>
</g>
<!-- models&#45;&gt;controller -->
<g id="edge2" class="edge">
<title>models&#45;&gt;controller</title><style>.edge>path:hover{stroke-width:8}</style>
<path fill="none" stroke="black" d="M84.58,-215.7C81.43,-207.81 77.62,-198.3 74.12,-189.55"/>
<polygon fill="#49ac71" stroke="black" points="77.31,-188.09 70.34,-180.1 70.81,-190.69 77.31,-188.09"/>
</g>
<!-- sqlalchemy -->
<g id="node4" class="node">
<title>sqlalchemy</title><style>.edge>path:hover{stroke-width:8}</style>
<polygon fill="#266ed9" stroke="black" points="73,-361 70,-365 49,-365 46,-361 0,-361 0,-325 73,-325 73,-361"/>
<text text-anchor="middle" x="36.5" y="-340.5" font-family="Helvetica,sans-Serif" font-size="10.00" fill="#ffffff">sqlalchemy</text>
</g>
<!-- sqlalchemy&#45;&gt;controller -->
<g id="edge3" class="edge">
<title>sqlalchemy&#45;&gt;controller</title><style>.edge>path:hover{stroke-width:8}</style>
<path fill="none" stroke="black" d="M34.49,-324.58C33.77,-314.12 33.73,-300.64 36.5,-289"/>
<path fill="none" stroke="black" d="M36.5,-288C44.51,-254.36 52.76,-215.38 58,-190.02"/>
<polygon fill="#266ed9" stroke="black" points="61.47,-190.53 60.06,-180.03 54.61,-189.13 61.47,-190.53"/>
</g>
<!-- sqlalchemy&#45;&gt;models -->
<g id="edge4" class="edge">
<title>sqlalchemy&#45;&gt;models</title><style>.edge>path:hover{stroke-width:8}</style>
<path fill="none" stroke="black" d="M36.5,-288C39.35,-276.01 47.39,-265.73 56.47,-257.52"/>
<polygon fill="#266ed9" stroke="black" points="58.76,-260.16 64.24,-251.1 54.3,-254.76 58.76,-260.16"/>
</g>
<!-- view&#45;&gt;main -->
<g id="edge5" class="edge">
<title>view&#45;&gt;main</title><style>.edge>path:hover{stroke-width:8}</style>
<path fill="none" stroke="black" d="M63.5,-71.7C63.5,-63.98 63.5,-54.71 63.5,-46.11"/>
<polygon fill="#9e4cb3" stroke="black" points="67,-46.1 63.5,-36.1 60,-46.1 67,-46.1"/>
</g>
</g>
</svg>
